<svg xmlns="http://www.w3.org/2000/svg"  xmlns:xlink="http://www.w3.org/1999/xlink"  viewBox="0 0 24 24">
                <path d="M12 18C8.69 18 6 15.31 6 12C6 8.69 8.69 6 12 6C15.31 6 18 8.69 18 12C18 15.31 15.31 18 12 18ZM12 2C12.55 2 13 2.45 13 3V4C13 4.55 12.55 5 12 5C11.45 5 11 4.55 11 4V3C11 2.45 11.45 2 12 2ZM12 19C12.55 19 13 19.45 13 20V21C13 21.55 12.55 22 12 22C11.45 22 11 21.55 11 21V20C11 19.45 11.45 19 12 19ZM2 12C2 11.45 2.45 11 3 11H4C4.55 11 5 11.45 5 12C5 12.55 4.55 13 4 13H3C2.45 13 2 12.55 2 12ZM19 12C19 11.45 19.45 11 20 11H21C21.55 11 22 11.45 22 12C22 12.55 21.55 13 21 13H20C19.45 13 19 12.55 19 12ZM4.22 4.22C4.61 3.83 5.24 3.83 5.63 4.22L6.34 4.93C6.73 5.32 6.73 5.95 6.34 6.34C5.95 6.73 5.32 6.73 4.93 6.34L4.22 5.63C3.83 5.24 3.83 4.61 4.22 4.22ZM17.66 17.66C18.05 17.27 18.68 17.27 19.07 17.66L19.78 18.37C20.17 18.76 20.17 19.39 19.78 19.78C19.39 20.17 18.76 20.17 18.37 19.78L17.66 19.07C17.27 18.68 17.27 18.05 17.66 17.66ZM19.78 4.22C20.17 4.61 20.17 5.24 19.78 5.63L19.07 6.34C18.68 6.73 18.05 6.73 17.66 6.34C17.27 5.95 17.27 5.32 17.66 4.93L18.37 4.22C18.76 3.83 19.39 3.83 19.78 4.22ZM6.34 17.66C6.73 18.05 6.73 18.68 6.34 19.07L5.63 19.78C5.24 20.17 4.61 20.17 4.22 19.78C3.83 19.39 3.83 18.76 4.22 18.37L4.93 17.66C5.32 17.27 5.95 17.27 6.34 17.66Z"></path>
              </svg>